<?xml version="1.0" standalone="no"?>
<!DOCTYPE svg PUBLIC "-//W3C//DTD SVG 20010904//EN"
 "http://www.w3.org/TR/2001/REC-SVG-20010904/DTD/svg10.dtd">
<svg version="1.0" xmlns="http://www.w3.org/2000/svg"
 width="225.000000pt" height="203.000000pt" viewBox="0 0 225.000000 203.000000"
 preserveAspectRatio="xMidYMid meet">

<g transform="translate(0.000000,203.000000) scale(0.100000,-0.100000)"
fill="#000000" stroke="none">
<path d="M731 1982 c-137 -56 -133 -50 -129 -229 l3 -122 -29 -30 -30 -31
-130 0 c-72 0 -141 -3 -152 -6 -17 -4 -33 -33 -68 -117 -25 -62 -46 -123 -46
-136 0 -17 30 -54 100 -126 91 -92 100 -105 100 -139 0 -34 -9 -46 -95 -133
-52 -52 -98 -106 -101 -119 -7 -26 78 -253 99 -266 7 -4 74 -8 150 -8 l138 0
30 -34 c29 -34 30 -37 34 -163 2 -71 8 -140 14 -154 7 -20 33 -36 115 -72 59
-26 119 -47 134 -47 20 0 49 23 125 100 131 132 130 132 257 5 51 -52 106 -99
121 -105 23 -10 42 -5 145 37 140 57 136 50 132 230 l-3 122 29 30 30 31 130
0 c72 0 141 3 152 6 17 4 33 33 68 117 25 62 46 123 46 136 0 17 -30 54 -100
126 -93 94 -100 104 -100 141 1 36 8 46 96 134 52 52 97 105 100 117 7 25 -79
252 -99 265 -7 4 -74 8 -150 8 l-138 0 -30 34 c-29 34 -30 37 -34 164 -3 71
-9 141 -14 154 -7 18 -35 36 -115 71 -59 26 -119 47 -133 47 -21 0 -51 -24
-127 -100 -132 -132 -126 -132 -267 5 -59 58 -116 105 -126 105 -10 -1 -69
-22 -132 -48z m532 -645 c72 -33 141 -103 175 -175 21 -45 26 -73 27 -132 0
-65 -4 -84 -33 -142 -36 -74 -95 -132 -170 -169 -38 -19 -63 -24 -132 -24
-108 0 -175 30 -249 110 -120 132 -122 314 -4 445 104 116 251 149 386 87z"/>
</g>
</svg>
