<?xml version="1.0" standalone="no"?>
<!DOCTYPE svg PUBLIC "-//W3C//DTD SVG 20010904//EN"
 "http://www.w3.org/TR/2001/REC-SVG-20010904/DTD/svg10.dtd">
<svg version="1.0" xmlns="http://www.w3.org/2000/svg"
 width="225.000000pt" height="203.000000pt" viewBox="0 0 225.000000 203.000000"
 preserveAspectRatio="xMidYMid meet">

<g transform="translate(0.000000,203.000000) scale(0.100000,-0.100000)"
fill="#000000" stroke="none">
<path d="M625 1893 c-41 -21 -83 -62 -103 -98 -14 -24 -17 -68 -20 -232 l-4
-203 70 0 c57 0 71 3 76 17 4 9 6 93 5 185 -1 149 1 171 16 188 18 19 34 20
535 20 489 0 518 -1 534 -18 15 -17 16 -82 16 -738 l1 -719 -22 -17 c-20 -17
-60 -18 -529 -18 -470 0 -509 1 -530 18 -20 16 -21 25 -23 202 l-2 185 -72 3
-73 3 0 -176 c0 -198 8 -246 53 -300 63 -76 46 -75 647 -75 499 0 538 2 576
19 48 22 101 82 114 131 6 21 10 318 10 755 0 675 -2 723 -19 760 -19 43 -78
100 -118 116 -14 5 -254 9 -566 9 -474 -1 -546 -3 -572 -17z"/>
<path d="M730 1343 c-19 -24 -21 -37 -18 -93 l5 -65 -151 3 c-142 3 -153 2
-179 -18 -27 -21 -27 -23 -27 -141 0 -165 -7 -159 199 -159 l158 0 -5 -49 c-2
-28 -2 -61 2 -75 6 -26 31 -56 47 -56 7 0 183 148 358 301 l44 39 -29 22 c-16
13 -105 89 -198 171 -94 81 -174 147 -177 147 -4 0 -17 -12 -29 -27z"/>
</g>
</svg>
